<mxfile host="app.diagrams.net" modified="2023-06-02T15:40:47.178Z" agent="Mozilla/5.0 (Macintosh; Intel Mac OS X 10_15_7) AppleWebKit/537.36 (KHTML, like Gecko) Chrome/112.0.0.0 Whale/3.20.182.14 Safari/537.36" version="21.3.7" etag="9JwiWAMPo7C6z7gVhlJn" type="github">
  <diagram name="페이지-1" id="iA6ajNTv9vHK-3SnFm92">
    <mxGraphModel>
      <root>
        <mxCell id="0" />
        <mxCell id="1" parent="0" />
      </root>
    </mxGraphModel>
  </diagram>
</mxfile>
